inDegrees=no
num_controls=7
num_derivatives=13
num_iterations=76
num_multipliers=7
num_parameters=0
num_slacks=7
num_states=26
objective=5.774923
objective_accelerations=0.310849
objective_balance=0.056244
objective_effort=0.392552
objective_height=4.992502
objective_ligament=0.022776
solver_duration=666.457379
status=Solve_Succeeded
success=true
DataType=double
version=3
OpenSimVersion=4.4-2022-07-23-0e9fedc
endheader
time	/jointset/ground_pelvis/pelvis_tilt/value	/jointset/ground_pelvis/pelvis_tx/value	/jointset/ground_pelvis/pelvis_ty/value	/jointset/hip_r/hip_flexion_r/value	/jointset/hip_r/hip_adduction_r/value	/jointset/hip_r/hip_rotation_r/value	/jointset/back/lumbar_extension/value	/jointset/patellofemoral_r/patellar_flexion_r/value	/jointset/knee_r/knee_flexion_r/value	/jointset/knee_r/knee_adduction_r/value	/jointset/knee_r/knee_rotation_r/value	/jointset/ankle_r/ankle_angle_r/value	/jointset/subtalar_r/subtalar_angle_r/value	/jointset/ground_pelvis/pelvis_tilt/speed	/jointset/ground_pelvis/pelvis_tx/speed	/jointset/ground_pelvis/pelvis_ty/speed	/jointset/hip_r/hip_flexion_r/speed	/jointset/hip_r/hip_adduction_r/speed	/jointset/hip_r/hip_rotation_r/speed	/jointset/back/lumbar_extension/speed	/jointset/patellofemoral_r/patellar_flexion_r/speed	/jointset/knee_r/knee_flexion_r/speed	/jointset/knee_r/knee_adduction_r/speed	/jointset/knee_r/knee_rotation_r/speed	/jointset/ankle_r/ankle_angle_r/speed	/jointset/subtalar_r/subtalar_angle_r/speed	/forceset/tau_hip_flexion_r	/forceset/tau_hip_adduction_r	/forceset/tau_hip_rotation_r	/forceset/tau_knee_flexion_r	/forceset/tau_ankle_angle_r	/forceset/tau_subtalar_angle_r	/forceset/tau_lumbar_extension	lambda_cid13_p0	lambda_cid14_p0	lambda_cid14_p1	lambda_cid14_p2	lambda_cid14_p3	lambda_cid14_p4	lambda_cid14_p5	/jointset/ground_pelvis/pelvis_tilt/accel	/jointset/ground_pelvis/pelvis_tx/accel	/jointset/ground_pelvis/pelvis_ty/accel	/jointset/hip_r/hip_flexion_r/accel	/jointset/hip_r/hip_adduction_r/accel	/jointset/hip_r/hip_rotation_r/accel	/jointset/back/lumbar_extension/accel	/jointset/patellofemoral_r/patellar_flexion_r/accel	/jointset/knee_r/knee_flexion_r/accel	/jointset/knee_r/knee_adduction_r/accel	/jointset/knee_r/knee_rotation_r/accel	/jointset/ankle_r/ankle_angle_r/accel	/jointset/subtalar_r/subtalar_angle_r/accel	gamma_cid13_p0	gamma_cid14_p0	gamma_cid14_p1	gamma_cid14_p2	gamma_cid14_p3	gamma_cid14_p4	gamma_cid14_p5
0	-0.006516583915043889	0.09626115994568728	0.9427240393571842	0.1762555651711513	-0.2321526140143006	-0.2616402474062855	-0.0385979564078546	0.07317816487764475	0.07317816487761825	0.1745326888845078	0.1745323924902612	0.0324735960626065	-0.003451710775233372	0	0	0	0	0	0	0	0	0	0	0	0	0	0.2147876404075494	-0.1003266407675992	-0.04655344808993962	-0.4165130404145191	0.450228536577621	-0.2089833330074003	-0.1085906378489486	-39.07627992878145	92.68684091568237	-64.48584334467343	-0.7351138354650789	-50.020630312796	-681.5795052002613	6.627444956379891	-0.754634888674632	-0.3821067328737235	-0.3795882626021713	5.595619220567887	0.1269733542889575	1.938843586913886	-4.294454251283424	7.356660597267422	7.356660597267314	-2.230728125868089	0.1802299587683225	3.193176239574198	0.8566220697294931	5.914945773031974e-08	3.710656248564707e-08	-3.919553596695935e-07	1.619910825383072e-07	1.32436452885812e-08	2.070704604442836e-08	-2.390724260388787e-07
0.01	-0.006551395821711542	0.09624422601078299	0.9427058310683927	0.1765245411947039	-0.2321456612489066	-0.2615348851915152	-0.03881400367606056	0.0735354380522046	0.07353543805218667	0.1744219016915298	0.1745302119577845	0.03263195304959448	-0.003408648913433066	-0.007061966645642395	-0.003190325680539711	-0.003638542826209016	0.05347062701951211	0.001315109477416307	0.02109615819826056	-0.04294991354620496	0.07113549574367872	0.07113549574367459	-0.02191499645279325	-0.0005327997402943734	0.03173455866099102	0.008546742625951719	0.2196089125761016	-0.16319545235388	-0.04759021674853043	-0.4291160490237031	0.4582231987303849	-0.1569462382753481	-0.1113199313740504	-39.08821982126533	97.2616001468442	-41.38701657085388	-4.072867102278514	-55.97905030692808	-682.4468500452904	53.97905963550554	-0.6969126687898568	-0.2580236553829681	-0.3555159107670832	5.174100603523871	0.1224317255313377	2.198595414905614	-4.256328881457663	6.944111355766026	6.944111355764909	-2.135561907417056	-0.1844971644752489	3.173079433244644	0.8438128790264718	8.966279764489607e-08	3.906252768121276e-08	-6.19963506273271e-07	1.752116898286747e-07	4.262458738768569e-08	-8.546999759352025e-08	-3.269767228019261e-07
0.02	-0.006659814418365249	0.0962012831851123	0.9426513316276894	0.1773184867203785	-0.2321278269925378	-0.2612178426991404	-0.03945176387481213	0.07459448964293208	0.07459448964294033	0.1740992292339823	0.1745198109834502	0.03310955237387168	-0.003282097121376843	-0.01472133794139458	-0.005201778153283313	-0.007258230382311224	0.1049939004736149	0.002176298197053957	0.0423360555413908	-0.08434258609849529	0.1403556832010364	0.1403556832010102	-0.04237705300273897	-0.00164408844236671	0.06384846747731836	0.01669798605178963	0.2244301847445727	-0.2260642639394499	-0.04862698540895135	-0.4417190576326926	0.466217860883451	-0.1049091435424278	-0.1140492248993108	-39.12334700729316	101.9019168568662	-18.2902620221878	-7.394811242404008	-62.12881475059167	-682.3577155141186	101.1520844924458	-0.8741158186903665	-0.1463320913193308	-0.3758172085806222	5.206148507484929	0.03618920273213264	1.967591415886057	-3.983006052496873	6.973598940003368	6.973598939999678	-1.940140145296304	0.0645321664145614	3.269046270635476	0.7775222297041782	1.201761375594724e-07	4.101849287677846e-08	-8.479716528769485e-07	1.884322971190421e-07	7.200552948679018e-08	-1.916470412314689e-07	-4.148810195649735e-07
0.03	-0.006845811683769788	0.09614137776663165	0.9425606456450498	0.1786194513623681	-0.2321033523418507	-0.2606926809929836	-0.04049546041110861	0.07633750852450828	0.07633750852450714	0.1735787687492489	0.174500229769425	0.03390724188175769	-0.003076293993145766	-0.02235718379463698	-0.006855905509089545	-0.01088049409456403	0.1549843736928092	0.002670587270595844	0.06247554388842954	-0.1241364168731009	0.2079888677755788	0.2079888677755665	-0.06151474274036606	-0.002149989251411969	0.09544330842031806	0.02435875399997052	0.21453586836402	-0.2011242799018066	-0.04594048249927858	-0.4251619653342847	0.4445456231489398	-0.1181949161745237	-0.1067936479707132	-39.18070039418591	94.42900166729144	-25.31429956976562	-6.337156140494136	-55.98659440041241	-681.8290261480075	85.38749720867689	-0.6901685145944255	-0.1864285448966317	-0.3556989027757574	4.86330507685822	0.04875528560727202	2.004066846721504	-3.938525937268998	6.619270259777677	6.619270259784229	-1.870648944958895	-0.0897633499044756	3.067806082576647	0.7446588352048852	1.242741796453737e-07	3.70686912505773e-08	-8.786366044482414e-07	1.61779392125001e-07	7.939108514713328e-08	-2.630777642127806e-07	-4.01819218787867e-07
